<?xml version="1.0" standalone="no"?>
<!DOCTYPE svg PUBLIC "-//W3C//DTD SVG 20010904//EN"
 "http://www.w3.org/TR/2001/REC-SVG-20010904/DTD/svg10.dtd">
<svg version="1.0" xmlns="http://www.w3.org/2000/svg"
 width="372.000000pt" height="320.000000pt" viewBox="0 0 372.000000 320.000000"
 preserveAspectRatio="xMidYMid meet">

<g transform="translate(0.000000,320.000000) scale(0.100000,-0.100000)"
fill="#000000" stroke="none">
<path d="M2640 2005 l-205 -205 -140 140 -140 140 -133 -133 c-72 -73 -132
-137 -132 -143 0 -6 11 -21 25 -34 l26 -24 107 107 107 107 110 -110 110 -110
-33 -32 -32 -33 57 -57 58 -58 207 207 208 208 210 -210 210 -210 55 55 c30
30 55 59 55 65 0 5 -118 128 -263 273 l-262 262 -205 -205z"/>
<path d="M420 1241 l0 -281 80 0 80 0 0 70 0 70 60 0 c161 0 262 96 247 235
-7 71 -37 118 -95 153 -45 26 -53 27 -209 30 l-163 4 0 -281z m257 139 c28
-10 53 -45 53 -74 0 -7 -9 -25 -21 -40 -18 -22 -28 -26 -75 -26 l-54 0 0 75 0
75 34 0 c18 0 47 -5 63 -10z"/>
<path d="M1060 1240 l0 -280 80 0 80 0 0 280 0 280 -80 0 -80 0 0 -280z"/>
<path d="M1422 1243 l3 -278 137 -3 138 -3 -20 -37 c-26 -48 -25 -68 5 -97 20
-21 34 -25 80 -25 l55 0 0 40 c0 33 -4 40 -19 40 -30 0 -32 27 -6 59 21 24 25
40 25 90 l0 60 -117 3 -118 3 -3 42 -3 42 103 3 103 3 3 62 3 62 -103 3 -103
3 -3 38 -3 37 115 0 116 0 0 65 0 65 -195 0 -195 0 2 -277z"/>
<path d="M1962 1448 l3 -73 82 -3 83 -3 2 -202 3 -202 78 -3 77 -3 0 206 0
205 85 0 85 0 0 75 0 75 -250 0 -251 0 3 -72z"/>
<path d="M2690 1249 c-58 -149 -106 -275 -108 -280 -2 -5 33 -9 81 -9 l85 0
16 40 16 40 96 0 96 0 15 -40 16 -40 84 0 c45 0 83 3 83 8 0 4 -47 128 -105
277 -58 148 -105 270 -105 272 0 2 -37 3 -82 3 l-83 0 -105 -271z m220 -7 l30
-82 -60 0 c-33 0 -60 3 -60 8 0 11 54 161 57 158 2 -2 17 -40 33 -84z"/>
</g>
</svg>
